<svg width="30" height="38" viewBox="0 0 30 38" fill="none" xmlns="http://www.w3.org/2000/svg">
<path fill-rule="evenodd" clip-rule="evenodd" d="M20.6966 28.7012C26.1523 26.4695 29.9915 21.1301 29.9867 14.9014C29.9804 6.6711 23.2651 0.00478421 14.9876 0.0117242C6.71006 0.0186742 0.00492339 6.69625 0.0112349 14.9266C0.0162829 21.5092 4.31317 27.0915 10.2685 29.0591L13.6626 36.1084C14.3957 37.6311 16.5696 37.6151 17.2795 36.0818L20.6966 28.7012ZM15.0054 23.2289C10.3868 23.2328 6.63983 19.5132 6.63631 14.921C6.63279 10.3288 10.374 6.60286 14.9926 6.59899C19.6112 6.59511 23.3581 10.3147 23.3617 14.907C23.3652 19.4992 19.6239 23.2251 15.0054 23.2289Z" fill="url(#paint0_linear_307_133)"/>
<defs>
<linearGradient id="paint0_linear_307_133" x1="15" y1="7" x2="15" y2="34.5" gradientUnits="userSpaceOnUse">
<stop stop-color="#97E1E7"/>
<stop offset="0.604167" stop-color="#947EBE"/>
<stop offset="1" stop-color="#F27EAA"/>
</linearGradient>
</defs>
</svg>
