<svg width="30" height="41" viewBox="0 0 30 41" fill="none" xmlns="http://www.w3.org/2000/svg">
<path d="M29.9867 15.9014C29.993 24.1317 23.2879 30.8093 15.0104 30.8162C6.73291 30.8232 0.0175463 24.1568 0.0112349 15.9266C0.00492339 7.69625 6.71006 1.01867 14.9876 1.01172C23.2651 1.00478 29.9804 7.6711 29.9867 15.9014ZM6.63631 15.921C6.63983 20.5132 10.3868 24.2328 15.0054 24.2289C19.6239 24.2251 23.3652 20.4992 23.3617 15.907C23.3581 11.3147 19.6112 7.59511 14.9926 7.59899C10.374 7.60286 6.63279 11.3288 6.63631 15.921Z" fill="#282A36"/>
<path d="M17.2795 37.0818C16.5696 38.6151 14.3957 38.6311 13.6626 37.1084L9.58039 28.63C8.94107 27.3022 9.90829 25.7627 11.3819 25.7627H19.3895C20.8503 25.7627 21.8186 27.2779 21.2049 28.6034L17.2795 37.0818Z" fill="#282A36"/>
</svg>
