<svg width="545" height="194" viewBox="0 0 545 194" fill="none" xmlns="http://www.w3.org/2000/svg">
<path d="M50.4914 176.343V193.721H25.598C22.1536 193.721 19.492 192.86 17.6133 191.138C15.8911 189.259 15.03 186.597 15.03 183.153V51.1709H35.2266V176.343H50.4914ZM172.689 176.343V193.721H45.4037V176.343H103.645C102.079 174.62 100.905 172.507 100.122 170.002C99.3395 167.34 98.9481 163.896 98.9481 159.669V68.5493H54.093V51.1709H164V68.5493H119.145V160.608C119.145 166.088 120.162 170.08 122.198 172.585C124.233 175.09 127.521 176.343 132.061 176.343H172.689ZM309.018 176.343V193.721H167.642V176.343H226.588C241.931 176.343 254.143 171.411 263.223 161.547C272.304 151.527 276.844 138.063 276.844 121.154C276.844 105.028 272.304 92.2686 263.223 82.8748C254.143 73.3245 241.931 68.5493 226.588 68.5493H203.103V163.661H182.907V51.1709H227.057C241.148 51.1709 253.438 54.0673 263.928 59.8601C274.574 65.4964 282.715 73.6376 288.351 84.2839C294.144 94.7736 297.041 107.064 297.041 121.154C297.041 132.74 295.162 143.308 291.404 152.858C287.647 162.252 282.246 170.08 275.2 176.343H309.018ZM381.335 51.1709L434.644 193.721H413.039L371.237 77.7082L349.161 139.002H381.1L386.502 156.381H342.821L332.487 185.267C330.296 190.903 326.303 193.721 320.51 193.721H305.246V176.343H314.17L361.138 51.1709H381.335Z" fill="white"/>
<path d="M500.618 0.660004H489.748V35.2H500.618V0.660004Z" fill="white"/>
<path d="M540.857 29.4633L507.588 40.2686L510.945 50.607L544.215 39.8017L540.857 29.4633Z" fill="white"/>
<path d="M508.267 58.7777L499.474 65.1671L520.029 93.4578L528.823 87.0685L508.267 58.7777Z" fill="white"/>
<path d="M482.123 58.7399L461.558 87.0387L470.352 93.4292L490.916 65.1304L482.123 58.7399Z" fill="white"/>
<path d="M449.521 29.4216L446.163 39.76L479.432 50.5688L482.791 40.2304L449.521 29.4216Z" fill="white"/>
</svg>
